<?xml version="1.0" encoding="utf-8"?>
<!-- Generator: Adobe Illustrator 27.2.0, SVG Export Plug-In . SVG Version: 6.00 Build 0)  -->
<svg version="1.1" id="Слой_1" xmlns="http://www.w3.org/2000/svg" xmlns:xlink="http://www.w3.org/1999/xlink" x="0px" y="0px"
	 viewBox="0 0 1451.3 1451.3" style="enable-background:new 0 0 1451.3 1451.3;" xml:space="preserve">
<style type="text/css">
	.st0{display:none;}
	.st1{fill:none;stroke:url(#SVGID_1_);stroke-width:21;stroke-miterlimit:10;}
	.st2{fill:none;stroke:url(#SVGID_00000119102070675784747770000010354184848019732638_);stroke-width:21;stroke-miterlimit:10;}
	.st3{opacity:0.79;}
	.st4{fill:#950020;}
	.st5{opacity:0.64;}
	.st6{fill:#310025;}
	.st7{fill:url(#SVGID_00000012444258197393874650000015425134316657751426_);}
	.st8{fill:url(#SVGID_00000100356430766808064990000010989496718751391109_);}
</style>
<rect y="0" class="st0" width="1451.3" height="1451.3"/>
<image style="display:none;overflow:visible;" width="273" height="394" xlink:href="AABF4F4F.jpg"  transform="matrix(4.2733 0 0 4.2733 167.75 -161.0625)">
</image>
<g>
	<g>
		<linearGradient id="SVGID_1_" gradientUnits="userSpaceOnUse" x1="810.0546" y1="1289.1503" x2="648.877" y2="1009.9824">
			<stop  offset="0" style="stop-color:#FFFFFF;stop-opacity:0.6"/>
			<stop  offset="0.9944" style="stop-color:#FFFFFF;stop-opacity:0.4"/>
		</linearGradient>
		<polygon class="st1" points="932.6,1101.6 932.6,1184.4 891.2,1184.4 891.2,1225.8 560.2,1225.8 560.2,1184.4 518.8,1184.4 
			518.8,1101.6 560.2,1101.6 560.2,1143 642.9,1143 642.9,1101.6 684.3,1101.6 684.3,1143 767.1,1143 767.1,1101.6 808.4,1101.6 
			808.4,1143 891.2,1143 891.2,1101.6 		"/>
		
			<linearGradient id="SVGID_00000078758605399574220910000008982376478283826085_" gradientUnits="userSpaceOnUse" x1="964.7471" y1="1058.236" x2="514.7095" y2="278.7479">
			<stop  offset="0" style="stop-color:#FFFFFF;stop-opacity:0.6"/>
			<stop  offset="0.9944" style="stop-color:#FFFFFF;stop-opacity:0.4"/>
		</linearGradient>
		
			<path style="fill:none;stroke:url(#SVGID_00000078758605399574220910000008982376478283826085_);stroke-width:21;stroke-miterlimit:10;" d="
			M1015.3,412.7v-39.9h-41.4v-39.9h-41.4v-39.9H518.8v39.9h-41.4v39.9h-41.4v39.9h-41.4v440.7h41.4v41.4h41.4v124.1h41.4v41.4h41.4
			v-41.4h41.4v-41.4h41.4v41.4h41.4v41.4h82.8v-41.4h41.4v-41.4h41.4v41.4h41.4v41.4h41.4v-41.4h41.4V894.8h41.4v-41.4h41.4V412.7
			H1015.3z M973.9,414.2v38.5h-41.4v-38.5H973.9z M932.5,412.7h-41.4v-38.5h41.4V412.7z M808.4,334.3h82.7v38.5h-82.7V334.3z
			 M518.8,772.1v-39.9h-41.4V613.8h41.4v-39.9h124.1v39.9h41.4v118.3h-41.4v39.9H518.8z M808.4,894.8H642.9v-41.4h41.4v-39.9h82.8
			v39.9h41.4V894.8z M973.9,732.2h-41.4v39.9H808.4v-39.9h-41.4V613.8h41.4v-39.9h124.1v39.9h41.4V732.2z M1015.3,532.5h-41.4v-78.4
			h41.4V532.5z"/>
	</g>
	<g class="st3">
		
			<image style="overflow:visible;opacity:0.75;" width="1432" height="1223" xlink:href="AABF4F4D.png"  transform="matrix(1 0 0 1 -7 135)">
		</image>
		<g>
			<g>
				<g>
					
						<rect x="426.8" y="1175.2" transform="matrix(0.9999 -1.099505e-02 1.099505e-02 0.9999 -13.122 4.9922)" class="st4" width="41.4" height="41.4"/>
					
						<rect x="385.9" y="1217" transform="matrix(0.9999 -1.099505e-02 1.099505e-02 0.9999 -13.5843 4.5449)" class="st4" width="41.4" height="41.4"/>
					
						<rect x="345" y="1258.9" transform="matrix(0.9999 -1.099505e-02 1.099505e-02 0.9999 -14.0466 4.0975)" class="st4" width="41.4" height="41.4"/>
					
						<rect x="304" y="1300.7" transform="matrix(0.9999 -1.099505e-02 1.099505e-02 0.9999 -14.5089 3.6502)" class="st4" width="41.4" height="41.4"/>
					
						<rect x="426.2" y="1134.1" transform="matrix(0.9999 -1.099505e-02 1.099505e-02 0.9999 -12.6694 4.9835)" class="st4" width="41.4" height="41.4"/>
					
						<rect x="385.3" y="1175.9" transform="matrix(0.9999 -1.099505e-02 1.099505e-02 0.9999 -13.1318 4.5361)" class="st4" width="41.4" height="41.4"/>
					
						<rect x="344.4" y="1217.7" transform="matrix(0.9999 -1.099505e-02 1.099505e-02 0.9999 -13.5941 4.0888)" class="st4" width="41.4" height="41.4"/>
					
						<rect x="303.5" y="1259.5" transform="matrix(0.9999 -1.099505e-02 1.099505e-02 0.9999 -14.0564 3.6415)" class="st4" width="41.4" height="41.4"/>
					<g>
						
							<rect x="1368.4" y="191.9" transform="matrix(0.9999 -1.099505e-02 1.099505e-02 0.9999 -2.2531 15.2856)" class="st4" width="41.4" height="41.4"/>
						
							<rect x="1327.5" y="233.7" transform="matrix(0.9999 -1.099505e-02 1.099505e-02 0.9999 -2.7155 14.8383)" class="st4" width="41.4" height="41.4"/>
						
							<rect x="1286.5" y="275.5" transform="matrix(0.9999 -1.099505e-02 1.099505e-02 0.9999 -3.1778 14.3909)" class="st4" width="41.4" height="41.4"/>
						
							<rect x="1245.6" y="317.3" transform="matrix(0.9999 -1.099505e-02 1.099505e-02 0.9999 -3.6401 13.9436)" class="st4" width="41.4" height="41.4"/>
						
							<rect x="1204.7" y="359.2" transform="matrix(0.9999 -1.099505e-02 1.099505e-02 0.9999 -4.1025 13.4963)" class="st4" width="41.4" height="41.4"/>
						
							<rect x="1163.8" y="401" transform="matrix(0.9999 -1.099505e-02 1.099505e-02 0.9999 -4.5648 13.049)" class="st4" width="41.4" height="41.4"/>
						
							<rect x="1122.9" y="442.8" transform="matrix(0.9999 -1.099505e-02 1.099505e-02 0.9999 -5.0271 12.6017)" class="st4" width="41.4" height="41.4"/>
						
							<rect x="1082" y="484.6" transform="matrix(0.9999 -1.099505e-02 1.099505e-02 0.9999 -5.4894 12.1543)" class="st4" width="41.4" height="41.4"/>
						
							<rect x="1367.8" y="150.7" transform="matrix(0.9999 -1.099505e-02 1.099505e-02 0.9999 -1.8006 15.2769)" class="st4" width="41.4" height="41.4"/>
						
							<rect x="1326.9" y="192.5" transform="matrix(0.9999 -1.099505e-02 1.099505e-02 0.9999 -2.263 14.8296)" class="st4" width="41.4" height="41.4"/>
						
							<rect x="1286" y="234.4" transform="matrix(0.9999 -1.099505e-02 1.099505e-02 0.9999 -2.7253 14.3822)" class="st4" width="41.4" height="41.4"/>
						
							<rect x="1245.1" y="276.2" transform="matrix(0.9999 -1.099505e-02 1.099505e-02 0.9999 -3.1876 13.9349)" class="st4" width="41.4" height="41.4"/>
						
							<rect x="1204.1" y="318" transform="matrix(0.9999 -1.099505e-02 1.099505e-02 0.9999 -3.6499 13.4876)" class="st4" width="41.4" height="41.4"/>
						
							<rect x="1163.2" y="359.8" transform="matrix(0.9999 -1.099505e-02 1.099505e-02 0.9999 -4.1123 13.0403)" class="st4" width="41.4" height="41.4"/>
						
							<rect x="1122.3" y="401.7" transform="matrix(0.9999 -1.099505e-02 1.099505e-02 0.9999 -4.5746 12.5929)" class="st4" width="41.4" height="41.4"/>
						
							<rect x="1081.4" y="443.5" transform="matrix(0.9999 -1.099505e-02 1.099505e-02 0.9999 -5.0369 12.1456)" class="st4" width="41.4" height="41.4"/>
						
							<rect x="1326.5" y="151.2" transform="matrix(0.9999 -1.099505e-02 1.099505e-02 0.9999 -1.8083 14.8223)" class="st4" width="41.4" height="41.4"/>
						
							<rect x="1285.5" y="193" transform="matrix(0.9999 -1.099505e-02 1.099505e-02 0.9999 -2.2706 14.375)" class="st4" width="41.4" height="41.4"/>
						
							<rect x="1244.6" y="234.8" transform="matrix(0.9999 -1.099505e-02 1.099505e-02 0.9999 -2.733 13.9277)" class="st4" width="41.4" height="41.4"/>
						
							<rect x="1203.7" y="276.7" transform="matrix(0.9999 -1.099505e-02 1.099505e-02 0.9999 -3.1953 13.4803)" class="st4" width="41.4" height="41.4"/>
						
							<rect x="1162.8" y="318.5" transform="matrix(0.9999 -1.099505e-02 1.099505e-02 0.9999 -3.6576 13.033)" class="st4" width="41.4" height="41.4"/>
						
							<rect x="1121.9" y="360.3" transform="matrix(0.9999 -1.099505e-02 1.099505e-02 0.9999 -4.1199 12.5857)" class="st4" width="41.4" height="41.4"/>
						
							<rect x="1081" y="402.1" transform="matrix(0.9999 -1.099505e-02 1.099505e-02 0.9999 -4.5823 12.1384)" class="st4" width="41.4" height="41.4"/>
					</g>
					
						<rect x="425.8" y="1092.7" transform="matrix(0.9999 -1.099505e-02 1.099505e-02 0.9999 -12.2148 4.9762)" class="st4" width="41.4" height="41.4"/>
					
						<rect x="384.9" y="1134.5" transform="matrix(0.9999 -1.099505e-02 1.099505e-02 0.9999 -12.6771 4.5289)" class="st4" width="41.4" height="41.4"/>
					
						<rect x="344" y="1176.4" transform="matrix(0.9999 -1.099505e-02 1.099505e-02 0.9999 -13.1394 4.0816)" class="st4" width="41.4" height="41.4"/>
					
						<rect x="303" y="1218.2" transform="matrix(0.9999 -1.099505e-02 1.099505e-02 0.9999 -13.6018 3.6343)" class="st4" width="41.4" height="41.4"/>
					
						<rect x="262.1" y="1260" transform="matrix(0.9999 -1.099505e-02 1.099505e-02 0.9999 -14.0641 3.1869)" class="st4" width="41.4" height="41.4"/>
				</g>
				
					<rect x="261.7" y="1218.6" transform="matrix(0.9999 -1.099505e-02 1.099505e-02 0.9999 -13.6093 3.1794)" class="st4" width="41.4" height="41.4"/>
				
					<rect x="261.2" y="1177.3" transform="matrix(0.9999 -1.099505e-02 1.099505e-02 0.9999 -13.1545 3.1719)" class="st4" width="41.4" height="41.4"/>
				
					<rect x="220.1" y="1177.7" transform="matrix(0.9999 -1.099505e-02 1.099505e-02 0.9999 -13.1619 2.7199)" class="st4" width="41.4" height="41.4"/>
				
					<rect x="179" y="1178.2" transform="matrix(0.9999 -1.099505e-02 1.099505e-02 0.9999 -13.1694 2.268)" class="st4" width="41.4" height="41.4"/>
				
					<rect x="178.5" y="1136.8" transform="matrix(0.9999 -1.099505e-02 1.099505e-02 0.9999 -12.7144 2.2605)" class="st4" width="41.4" height="41.4"/>
				
					<rect x="137.5" y="1136.3" transform="matrix(0.9999 -1.099505e-02 1.099505e-02 0.9999 -12.7111 1.809)" class="st4" width="41.4" height="41.4"/>
				
					<rect x="137" y="1095.8" transform="matrix(0.9999 -1.099505e-02 1.099505e-02 0.9999 -12.2668 1.8017)" class="st4" width="41.4" height="41.4"/>
				
					<rect x="178.1" y="1095.4" transform="matrix(0.9999 -1.099505e-02 1.099505e-02 0.9999 -12.2597 2.253)" class="st4" width="41.4" height="41.4"/>
				
					<rect x="177.6" y="1054.1" transform="matrix(0.9999 -1.099505e-02 1.099505e-02 0.9999 -11.8052 2.2455)" class="st4" width="41.4" height="41.4"/>
				
					<rect x="220.6" y="1218.9" transform="matrix(0.9999 -1.099505e-02 1.099505e-02 0.9999 -13.6143 2.7274)" class="st4" width="41.4" height="41.4"/>
				
					<rect x="219.6" y="1136.3" transform="matrix(0.9999 -1.099505e-02 1.099505e-02 0.9999 -12.7069 2.7124)" class="st4" width="41.4" height="41.4"/>
				
					<rect x="261" y="1135.9" transform="matrix(0.9999 -1.099505e-02 1.099505e-02 0.9999 -12.6996 3.167)" class="st4" width="41.4" height="41.4"/>
				
					<rect x="219.2" y="1094.9" transform="matrix(0.9999 -1.099505e-02 1.099505e-02 0.9999 -12.2519 2.7052)" class="st4" width="41.4" height="41.4"/>
				
					<rect x="260.6" y="1094.5" transform="matrix(0.9999 -1.099505e-02 1.099505e-02 0.9999 -12.2446 3.1597)" class="st4" width="41.4" height="41.4"/>
				
					<rect x="301.7" y="1094.1" transform="matrix(0.9999 -1.099505e-02 1.099505e-02 0.9999 -12.2373 3.6115)" class="st4" width="41.4" height="41.4"/>
				
					<rect x="342.4" y="1052.3" transform="matrix(0.9999 -1.099505e-02 1.099505e-02 0.9999 -11.7751 4.0569)" class="st4" width="41.4" height="41.4"/>
				
					<rect x="301.2" y="1052.7" transform="matrix(0.9999 -1.099505e-02 1.099505e-02 0.9999 -11.7828 3.604)" class="st4" width="41.4" height="41.4"/>
				
					<rect id="XMLID_00000181769419791286149530000014974598101250533273_" x="259.9" y="1053.2" transform="matrix(0.9999 -1.099505e-02 1.099505e-02 0.9999 -11.79 3.1494)" class="st4" width="41.4" height="41.4"/>
				
					<rect id="XMLID_00000034073091004452258370000009760118012169752731_" x="219" y="1053.6" transform="matrix(0.9999 -1.099505e-02 1.099505e-02 0.9999 -11.7973 2.6998)" class="st4" width="41.4" height="41.4"/>
				
					<rect x="136.6" y="1054.5" transform="matrix(0.9999 -1.099505e-02 1.099505e-02 0.9999 -11.8127 1.7942)" class="st4" width="41.4" height="41.4"/>
				
					<rect x="301" y="1012.8" transform="matrix(0.9999 -1.099505e-02 1.099505e-02 0.9999 -11.3442 3.5992)" class="st4" width="41.4" height="41.4"/>
				
					<rect x="96.4" y="1096.3" transform="matrix(0.9999 -1.099505e-02 1.099505e-02 0.9999 -12.2742 1.355)" class="st4" width="41.4" height="41.4"/>
				
					<rect x="259.4" y="971.9" transform="matrix(0.9999 -1.099505e-02 1.099505e-02 0.9999 -10.8969 3.1399)" class="st4" width="41.4" height="41.4"/>
				
					<rect x="259" y="930.6" transform="matrix(0.9999 -1.099505e-02 1.099505e-02 0.9999 -10.442 3.1324)" class="st4" width="41.4" height="41.4"/>
				
					<rect x="217.1" y="889.1" transform="matrix(0.9999 -1.099505e-02 1.099505e-02 0.9999 -9.9889 2.67)" class="st4" width="41.4" height="41.4"/>
				
					<rect x="216.7" y="848.3" transform="matrix(0.9999 -1.099505e-02 1.099505e-02 0.9999 -9.5404 2.6626)" class="st4" width="41.4" height="41.4"/>
				
					<rect x="174.9" y="807.1" transform="matrix(0.9999 -1.099505e-02 1.099505e-02 0.9999 -9.0896 2.2007)" class="st4" width="41.4" height="41.4"/>
				
					<rect x="174.5" y="765.9" transform="matrix(0.9999 -1.099505e-02 1.099505e-02 0.9999 -8.6364 2.1932)" class="st4" width="41.4" height="41.4"/>
				
					<rect x="133" y="725.2" transform="matrix(0.9999 -1.099505e-02 1.099505e-02 0.9999 -8.1921 1.7345)" class="st4" width="41.4" height="41.4"/>
				
					<rect x="132.5" y="684" transform="matrix(0.9999 -1.099505e-02 1.099505e-02 0.9999 -7.7389 1.7271)" class="st4" width="41.4" height="41.4"/>
				
					<rect x="131.7" y="642.6" transform="matrix(0.9999 -1.099505e-02 1.099505e-02 0.9999 -7.2842 1.716)" class="st4" width="41.4" height="41.4"/>
				
					<rect x="131.3" y="602.1" transform="matrix(0.9999 -1.099505e-02 1.099505e-02 0.9999 -6.8379 1.7086)" class="st4" width="41.4" height="41.4"/>
				
					<rect x="130.9" y="563.2" transform="matrix(0.9999 -1.099505e-02 1.099505e-02 0.9999 -6.4111 1.7016)" class="st4" width="41.4" height="41.4"/>
				
					<rect x="130.4" y="521.9" transform="matrix(0.9999 -1.099505e-02 1.099505e-02 0.9999 -5.9562 1.6941)" class="st4" width="41.4" height="41.4"/>
				
					<rect x="130" y="480.6" transform="matrix(0.9999 -1.099505e-02 1.099505e-02 0.9999 -5.503 1.6866)" class="st4" width="41.4" height="41.4"/>
				
					<rect x="96" y="1055" transform="matrix(0.9999 -1.099505e-02 1.099505e-02 0.9999 -11.8196 1.3475)" class="st4" width="41.4" height="41.4"/>
				
					<rect x="54.1" y="1015.6" transform="matrix(0.9999 -1.099505e-02 1.099505e-02 0.9999 -11.389 0.8854)" class="st4" width="41.4" height="41.4"/>
				
					<rect x="53.7" y="974.2" transform="matrix(0.9999 -1.099505e-02 1.099505e-02 0.9999 -10.9342 0.8779)" class="st4" width="41.4" height="41.4"/>
				
					<rect x="11.9" y="932.7" transform="matrix(0.9999 -1.099505e-02 1.099505e-02 0.9999 -10.481 0.4155)" class="st4" width="41.4" height="41.4"/>
				
					<rect x="11.4" y="891.4" transform="matrix(0.9999 -1.099505e-02 1.099505e-02 0.9999 -10.0262 0.408)" class="st4" width="41.4" height="41.4"/>
				
					<rect x="11" y="850" transform="matrix(0.9999 -1.099505e-02 1.099505e-02 0.9999 -9.5714 0.4005)" class="st4" width="41.4" height="41.4"/>
				
					<rect x="10.5" y="808.9" transform="matrix(0.9999 -1.099505e-02 1.099505e-02 0.9999 -9.1194 0.3931)" class="st4" width="41.4" height="41.4"/>
				
					<rect x="10" y="767.7" transform="matrix(0.9999 -1.099505e-02 1.099505e-02 0.9999 -8.6663 0.3856)" class="st4" width="41.4" height="41.4"/>
				
					<rect x="9.6" y="726.6" transform="matrix(0.9999 -1.099505e-02 1.099505e-02 0.9999 -8.2145 0.3781)" class="st4" width="41.4" height="41.4"/>
				
					<rect x="9.6" y="685.4" transform="matrix(0.9999 -1.099505e-02 1.099505e-02 0.9999 -7.7612 0.3759)" class="st4" width="41.4" height="41.4"/>
				
					<rect x="9.2" y="644" transform="matrix(0.9999 -1.099505e-02 1.099505e-02 0.9999 -7.3064 0.3684)" class="st4" width="41.4" height="41.4"/>
				
					<rect x="89.4" y="522.3" transform="matrix(0.9999 -1.099505e-02 1.099505e-02 0.9999 -5.9637 1.243)" class="st4" width="41.4" height="41.4"/>
				
					<rect x="91.3" y="725.7" transform="matrix(0.9999 -1.099505e-02 1.099505e-02 0.9999 -8.1997 1.2761)" class="st4" width="41.4" height="41.4"/>
				
					<rect x="49.2" y="564.1" transform="matrix(0.9999 -1.099505e-02 1.099505e-02 0.9999 -6.4259 0.8036)" class="st4" width="41.4" height="41.4"/>
				
					<rect x="49.6" y="603" transform="matrix(0.9999 -1.099505e-02 1.099505e-02 0.9999 -6.8527 0.8106)" class="st4" width="41.4" height="41.4"/>
				
					<rect x="89.8" y="563.2" transform="matrix(0.9999 -1.099505e-02 1.099505e-02 0.9999 -6.4134 1.2504)" class="st4" width="41.4" height="41.4"/>
				
					<rect x="90.3" y="604.6" transform="matrix(0.9999 -1.099505e-02 1.099505e-02 0.9999 -6.8682 1.2579)" class="st4" width="41.4" height="41.4"/>
				
					<rect x="29.6" y="664" transform="matrix(0.9999 -1.099505e-02 1.099505e-02 0.9999 -7.5223 1.0682)" class="st4" width="127.6" height="41.4"/>
				
					<rect x="29.4" y="699.4" transform="matrix(0.9999 -1.099505e-02 1.099505e-02 0.9999 -9.0843 1.0749)" class="st4" width="127.6" height="254.6"/>
				
					<rect x="50.1" y="643.5" transform="matrix(0.9999 -1.099505e-02 1.099505e-02 0.9999 -7.299 0.818)" class="st4" width="41.4" height="41.4"/>
				
					<rect x="90.3" y="639.2" transform="matrix(0.9999 -1.099505e-02 1.099505e-02 0.9999 -7.2488 1.2604)" class="st4" width="41.4" height="41.4"/>
				
					<rect x="135.9" y="766.3" transform="matrix(0.9999 -1.099505e-02 1.099505e-02 0.9999 -8.6434 1.7691)" class="st4" width="41.4" height="41.4"/>
				
					<rect x="139.5" y="803" transform="matrix(0.9999 -1.099505e-02 1.099505e-02 0.9999 -9.047 1.811)" class="st4" width="41.4" height="41.4"/>
				
					<rect x="121.4" y="835.7" transform="matrix(0.9999 -1.099505e-02 1.099505e-02 0.9999 -10.4337 1.9208)" class="st4" width="96.2" height="228.4"/>
				
					<rect x="53.2" y="929.7" transform="matrix(0.9999 -1.099505e-02 1.099505e-02 0.9999 -10.4565 1.7763)" class="st4" width="206.2" height="44.3"/>
				
					<rect x="88.1" y="959" transform="matrix(0.9999 -1.099505e-02 1.099505e-02 0.9999 -10.7646 1.2558)" class="st4" width="41.4" height="41.4"/>
				
					<rect x="88.5" y="990.9" transform="matrix(0.9999 -1.099505e-02 1.099505e-02 0.9999 -11.1155 1.2616)" class="st4" width="41.4" height="41.4"/>
				
					<rect x="94.5" y="1015.1" transform="matrix(0.9999 -1.099505e-02 1.099505e-02 0.9999 -11.3817 1.3286)" class="st4" width="41.4" height="41.4"/>
				
					<rect x="162.3" y="966.2" transform="matrix(0.9999 -1.099505e-02 1.099505e-02 0.9999 -11.1435 2.607)" class="st4" width="138.5" height="97.2"/>
				
					<rect x="262.6" y="1301.1" transform="matrix(0.9999 -1.099505e-02 1.099505e-02 0.9999 -14.5165 3.1944)" class="st4" width="41.4" height="41.4"/>
			</g>
		</g>
	</g>
</g>
<g class="st5">
	
		<image style="overflow:visible;opacity:0.75;" width="1432" height="1223" xlink:href="AABF4F53.png"  transform="matrix(1 0 0 1 26 135)">
	</image>
	<g>
		<g>
			<g>
				
					<rect x="459.5" y="1175.2" transform="matrix(0.9999 -1.099505e-02 1.099505e-02 0.9999 -13.12 5.3521)" class="st6" width="41.4" height="41.4"/>
				
					<rect x="418.6" y="1217" transform="matrix(0.9999 -1.099505e-02 1.099505e-02 0.9999 -13.5823 4.9048)" class="st6" width="41.4" height="41.4"/>
				
					<rect x="377.7" y="1258.9" transform="matrix(0.9999 -1.099505e-02 1.099505e-02 0.9999 -14.0446 4.4574)" class="st6" width="41.4" height="41.4"/>
				
					<rect x="336.8" y="1300.7" transform="matrix(0.9999 -1.099505e-02 1.099505e-02 0.9999 -14.507 4.0101)" class="st6" width="41.4" height="41.4"/>
				
					<rect x="458.9" y="1134.1" transform="matrix(0.9999 -1.099505e-02 1.099505e-02 0.9999 -12.6675 5.3434)" class="st6" width="41.4" height="41.4"/>
				
					<rect x="418" y="1175.9" transform="matrix(0.9999 -1.099505e-02 1.099505e-02 0.9999 -13.1298 4.896)" class="st6" width="41.4" height="41.4"/>
				
					<rect x="377.1" y="1217.7" transform="matrix(0.9999 -1.099505e-02 1.099505e-02 0.9999 -13.5921 4.4487)" class="st6" width="41.4" height="41.4"/>
				
					<rect x="336.2" y="1259.5" transform="matrix(0.9999 -1.099505e-02 1.099505e-02 0.9999 -14.0545 4.0014)" class="st6" width="41.4" height="41.4"/>
				<g>
					
						<rect x="1401.1" y="191.9" transform="matrix(0.9999 -1.099505e-02 1.099505e-02 0.9999 -2.2512 15.6455)" class="st6" width="41.4" height="41.4"/>
					
						<rect x="1360.2" y="233.7" transform="matrix(0.9999 -1.099505e-02 1.099505e-02 0.9999 -2.7135 15.1982)" class="st6" width="41.4" height="41.4"/>
					
						<rect x="1319.3" y="275.5" transform="matrix(0.9999 -1.099505e-02 1.099505e-02 0.9999 -3.1758 14.7508)" class="st6" width="41.4" height="41.4"/>
					
						<rect x="1278.4" y="317.3" transform="matrix(0.9999 -1.099505e-02 1.099505e-02 0.9999 -3.6381 14.3035)" class="st6" width="41.4" height="41.4"/>
					
						<rect x="1237.4" y="359.2" transform="matrix(0.9999 -1.099505e-02 1.099505e-02 0.9999 -4.1005 13.8562)" class="st6" width="41.4" height="41.4"/>
					
						<rect x="1196.5" y="401" transform="matrix(0.9999 -1.099505e-02 1.099505e-02 0.9999 -4.5628 13.4089)" class="st6" width="41.4" height="41.4"/>
					
						<rect x="1155.6" y="442.8" transform="matrix(0.9999 -1.099505e-02 1.099505e-02 0.9999 -5.0251 12.9615)" class="st6" width="41.4" height="41.4"/>
					
						<rect x="1114.7" y="484.6" transform="matrix(0.9999 -1.099505e-02 1.099505e-02 0.9999 -5.4875 12.5142)" class="st6" width="41.4" height="41.4"/>
					
						<rect x="1400.5" y="150.7" transform="matrix(0.9999 -1.099505e-02 1.099505e-02 0.9999 -1.7987 15.6368)" class="st6" width="41.4" height="41.4"/>
					
						<rect x="1359.6" y="192.5" transform="matrix(0.9999 -1.099505e-02 1.099505e-02 0.9999 -2.261 15.1894)" class="st6" width="41.4" height="41.4"/>
					
						<rect x="1318.7" y="234.4" transform="matrix(0.9999 -1.099505e-02 1.099505e-02 0.9999 -2.7233 14.7421)" class="st6" width="41.4" height="41.4"/>
					
						<rect x="1277.8" y="276.2" transform="matrix(0.9999 -1.099505e-02 1.099505e-02 0.9999 -3.1856 14.2948)" class="st6" width="41.4" height="41.4"/>
					
						<rect x="1236.9" y="318" transform="matrix(0.9999 -1.099505e-02 1.099505e-02 0.9999 -3.648 13.8475)" class="st6" width="41.4" height="41.4"/>
					
						<rect x="1196" y="359.8" transform="matrix(0.9999 -1.099505e-02 1.099505e-02 0.9999 -4.1103 13.4001)" class="st6" width="41.4" height="41.4"/>
					
						<rect x="1155.1" y="401.7" transform="matrix(0.9999 -1.099505e-02 1.099505e-02 0.9999 -4.5726 12.9528)" class="st6" width="41.4" height="41.4"/>
					
						<rect x="1114.1" y="443.5" transform="matrix(0.9999 -1.099505e-02 1.099505e-02 0.9999 -5.0349 12.5055)" class="st6" width="41.4" height="41.4"/>
					
						<rect x="1359.2" y="151.2" transform="matrix(0.9999 -1.099505e-02 1.099505e-02 0.9999 -1.8063 15.1822)" class="st6" width="41.4" height="41.4"/>
					
						<rect x="1318.3" y="193" transform="matrix(0.9999 -1.099505e-02 1.099505e-02 0.9999 -2.2687 14.7349)" class="st6" width="41.4" height="41.4"/>
					
						<rect x="1277.4" y="234.8" transform="matrix(0.9999 -1.099505e-02 1.099505e-02 0.9999 -2.731 14.2875)" class="st6" width="41.4" height="41.4"/>
					
						<rect x="1236.4" y="276.7" transform="matrix(0.9999 -1.099505e-02 1.099505e-02 0.9999 -3.1933 13.8402)" class="st6" width="41.4" height="41.4"/>
					
						<rect x="1195.5" y="318.5" transform="matrix(0.9999 -1.099505e-02 1.099505e-02 0.9999 -3.6556 13.3929)" class="st6" width="41.4" height="41.4"/>
					
						<rect x="1154.6" y="360.3" transform="matrix(0.9999 -1.099505e-02 1.099505e-02 0.9999 -4.118 12.9456)" class="st6" width="41.4" height="41.4"/>
					
						<rect x="1113.7" y="402.1" transform="matrix(0.9999 -1.099505e-02 1.099505e-02 0.9999 -4.5803 12.4983)" class="st6" width="41.4" height="41.4"/>
				</g>
				
					<rect x="458.5" y="1092.7" transform="matrix(0.9999 -1.099505e-02 1.099505e-02 0.9999 -12.2128 5.3361)" class="st6" width="41.4" height="41.4"/>
				
					<rect x="417.6" y="1134.5" transform="matrix(0.9999 -1.099505e-02 1.099505e-02 0.9999 -12.6751 4.8888)" class="st6" width="41.4" height="41.4"/>
				
					<rect x="376.7" y="1176.4" transform="matrix(0.9999 -1.099505e-02 1.099505e-02 0.9999 -13.1375 4.4415)" class="st6" width="41.4" height="41.4"/>
				
					<rect x="335.8" y="1218.2" transform="matrix(0.9999 -1.099505e-02 1.099505e-02 0.9999 -13.5998 3.9941)" class="st6" width="41.4" height="41.4"/>
				
					<rect x="294.9" y="1260" transform="matrix(0.9999 -1.099505e-02 1.099505e-02 0.9999 -14.0621 3.5468)" class="st6" width="41.4" height="41.4"/>
			</g>
			
				<rect x="294.4" y="1218.6" transform="matrix(0.9999 -1.099505e-02 1.099505e-02 0.9999 -13.6073 3.5393)" class="st6" width="41.4" height="41.4"/>
			
				<rect x="293.9" y="1177.3" transform="matrix(0.9999 -1.099505e-02 1.099505e-02 0.9999 -13.1525 3.5318)" class="st6" width="41.4" height="41.4"/>
			
				<rect x="252.8" y="1177.7" transform="matrix(0.9999 -1.099505e-02 1.099505e-02 0.9999 -13.1599 3.0798)" class="st6" width="41.4" height="41.4"/>
			
				<rect x="211.7" y="1178.2" transform="matrix(0.9999 -1.099505e-02 1.099505e-02 0.9999 -13.1674 2.6279)" class="st6" width="41.4" height="41.4"/>
			
				<rect x="211.3" y="1136.8" transform="matrix(0.9999 -1.099505e-02 1.099505e-02 0.9999 -12.7124 2.6204)" class="st6" width="41.4" height="41.4"/>
			
				<rect x="170.2" y="1136.3" transform="matrix(0.9999 -1.099505e-02 1.099505e-02 0.9999 -12.7091 2.1689)" class="st6" width="41.4" height="41.4"/>
			
				<rect x="169.8" y="1095.8" transform="matrix(0.9999 -1.099505e-02 1.099505e-02 0.9999 -12.2648 2.1616)" class="st6" width="41.4" height="41.4"/>
			
				<rect x="210.8" y="1095.4" transform="matrix(0.9999 -1.099505e-02 1.099505e-02 0.9999 -12.2577 2.6129)" class="st6" width="41.4" height="41.4"/>
			
				<rect x="210.4" y="1054.1" transform="matrix(0.9999 -1.099505e-02 1.099505e-02 0.9999 -11.8032 2.6054)" class="st6" width="41.4" height="41.4"/>
			
				<rect x="253.3" y="1218.9" transform="matrix(0.9999 -1.099505e-02 1.099505e-02 0.9999 -13.6123 3.0872)" class="st6" width="41.4" height="41.4"/>
			
				<rect x="252.4" y="1136.3" transform="matrix(0.9999 -1.099505e-02 1.099505e-02 0.9999 -12.7049 3.0723)" class="st6" width="41.4" height="41.4"/>
			
				<rect x="293.7" y="1135.9" transform="matrix(0.9999 -1.099505e-02 1.099505e-02 0.9999 -12.6976 3.5268)" class="st6" width="41.4" height="41.4"/>
			
				<rect x="251.9" y="1094.9" transform="matrix(0.9999 -1.099505e-02 1.099505e-02 0.9999 -12.2499 3.065)" class="st6" width="41.4" height="41.4"/>
			
				<rect x="293.3" y="1094.5" transform="matrix(0.9999 -1.099505e-02 1.099505e-02 0.9999 -12.2426 3.5196)" class="st6" width="41.4" height="41.4"/>
			
				<rect x="334.4" y="1094.1" transform="matrix(0.9999 -1.099505e-02 1.099505e-02 0.9999 -12.2353 3.9714)" class="st6" width="41.4" height="41.4"/>
			
				<rect x="375.1" y="1052.3" transform="matrix(0.9999 -1.099505e-02 1.099505e-02 0.9999 -11.7731 4.4167)" class="st6" width="41.4" height="41.4"/>
			
				<rect x="333.9" y="1052.7" transform="matrix(0.9999 -1.099505e-02 1.099505e-02 0.9999 -11.7808 3.9639)" class="st6" width="41.4" height="41.4"/>
			
				<rect id="XMLID_00000069390099794975717800000005525707982204532406_" x="292.6" y="1053.2" transform="matrix(0.9999 -1.099505e-02 1.099505e-02 0.9999 -11.7881 3.5093)" class="st6" width="41.4" height="41.4"/>
			
				<rect id="XMLID_00000147937852353543182460000008334415782769188243_" x="251.7" y="1053.6" transform="matrix(0.9999 -1.099505e-02 1.099505e-02 0.9999 -11.7953 3.0597)" class="st6" width="41.4" height="41.4"/>
			
				<rect x="169.3" y="1054.5" transform="matrix(0.9999 -1.099505e-02 1.099505e-02 0.9999 -11.8107 2.1541)" class="st6" width="41.4" height="41.4"/>
			
				<rect x="333.7" y="1012.8" transform="matrix(0.9999 -1.099505e-02 1.099505e-02 0.9999 -11.3423 3.9591)" class="st6" width="41.4" height="41.4"/>
			
				<rect x="129.1" y="1096.3" transform="matrix(0.9999 -1.099505e-02 1.099505e-02 0.9999 -12.2722 1.7149)" class="st6" width="41.4" height="41.4"/>
			
				<rect x="292.2" y="971.9" transform="matrix(0.9999 -1.099505e-02 1.099505e-02 0.9999 -10.8949 3.4998)" class="st6" width="41.4" height="41.4"/>
			
				<rect x="291.7" y="930.6" transform="matrix(0.9999 -1.099505e-02 1.099505e-02 0.9999 -10.4401 3.4923)" class="st6" width="41.4" height="41.4"/>
			
				<rect x="249.9" y="889.1" transform="matrix(0.9999 -1.099505e-02 1.099505e-02 0.9999 -9.9869 3.0299)" class="st6" width="41.4" height="41.4"/>
			
				<rect x="249.4" y="848.3" transform="matrix(0.9999 -1.099505e-02 1.099505e-02 0.9999 -9.5384 3.0225)" class="st6" width="41.4" height="41.4"/>
			
				<rect x="207.6" y="807.1" transform="matrix(0.9999 -1.099505e-02 1.099505e-02 0.9999 -9.0876 2.5606)" class="st6" width="41.4" height="41.4"/>
			
				<rect x="207.2" y="765.9" transform="matrix(0.9999 -1.099505e-02 1.099505e-02 0.9999 -8.6345 2.5531)" class="st6" width="41.4" height="41.4"/>
			
				<rect x="165.7" y="725.2" transform="matrix(0.9999 -1.099505e-02 1.099505e-02 0.9999 -8.1902 2.0944)" class="st6" width="41.4" height="41.4"/>
			
				<rect x="165.2" y="684" transform="matrix(0.9999 -1.099505e-02 1.099505e-02 0.9999 -7.737 2.087)" class="st6" width="41.4" height="41.4"/>
			
				<rect x="164.5" y="642.6" transform="matrix(0.9999 -1.099505e-02 1.099505e-02 0.9999 -7.2822 2.0758)" class="st6" width="41.4" height="41.4"/>
			
				<rect x="164" y="602.1" transform="matrix(0.9999 -1.099505e-02 1.099505e-02 0.9999 -6.8359 2.0685)" class="st6" width="41.4" height="41.4"/>
			
				<rect x="163.6" y="563.2" transform="matrix(0.9999 -1.099505e-02 1.099505e-02 0.9999 -6.4091 2.0614)" class="st6" width="41.4" height="41.4"/>
			
				<rect x="163.1" y="521.9" transform="matrix(0.9999 -1.099505e-02 1.099505e-02 0.9999 -5.9543 2.0539)" class="st6" width="41.4" height="41.4"/>
			
				<rect x="162.7" y="480.6" transform="matrix(0.9999 -1.099505e-02 1.099505e-02 0.9999 -5.501 2.0465)" class="st6" width="41.4" height="41.4"/>
			
				<rect x="128.7" y="1055" transform="matrix(0.9999 -1.099505e-02 1.099505e-02 0.9999 -11.8177 1.7074)" class="st6" width="41.4" height="41.4"/>
			
				<rect x="86.9" y="1015.6" transform="matrix(0.9999 -1.099505e-02 1.099505e-02 0.9999 -11.387 1.2453)" class="st6" width="41.4" height="41.4"/>
			
				<rect x="86.4" y="974.2" transform="matrix(0.9999 -1.099505e-02 1.099505e-02 0.9999 -10.9322 1.2378)" class="st6" width="41.4" height="41.4"/>
			
				<rect x="44.6" y="932.7" transform="matrix(0.9999 -1.099505e-02 1.099505e-02 0.9999 -10.479 0.7754)" class="st6" width="41.4" height="41.4"/>
			
				<rect x="44.1" y="891.4" transform="matrix(0.9999 -1.099505e-02 1.099505e-02 0.9999 -10.0242 0.7679)" class="st6" width="41.4" height="41.4"/>
			
				<rect x="43.7" y="850" transform="matrix(0.9999 -1.099505e-02 1.099505e-02 0.9999 -9.5694 0.7604)" class="st6" width="41.4" height="41.4"/>
			
				<rect x="43.2" y="808.9" transform="matrix(0.9999 -1.099505e-02 1.099505e-02 0.9999 -9.1174 0.7529)" class="st6" width="41.4" height="41.4"/>
			
				<rect x="42.8" y="767.7" transform="matrix(0.9999 -1.099505e-02 1.099505e-02 0.9999 -8.6643 0.7455)" class="st6" width="41.4" height="41.4"/>
			
				<rect x="42.3" y="726.6" transform="matrix(0.9999 -1.099505e-02 1.099505e-02 0.9999 -8.2125 0.738)" class="st6" width="41.4" height="41.4"/>
			
				<rect x="42.4" y="685.4" transform="matrix(0.9999 -1.099505e-02 1.099505e-02 0.9999 -7.7592 0.7358)" class="st6" width="41.4" height="41.4"/>
			
				<rect x="41.9" y="644" transform="matrix(0.9999 -1.099505e-02 1.099505e-02 0.9999 -7.3044 0.7283)" class="st6" width="41.4" height="41.4"/>
			
				<rect x="122.1" y="522.3" transform="matrix(0.9999 -1.099505e-02 1.099505e-02 0.9999 -5.9617 1.6029)" class="st6" width="41.4" height="41.4"/>
			
				<rect x="124" y="725.7" transform="matrix(0.9999 -1.099505e-02 1.099505e-02 0.9999 -8.1977 1.636)" class="st6" width="41.4" height="41.4"/>
			
				<rect x="81.9" y="564.1" transform="matrix(0.9999 -1.099505e-02 1.099505e-02 0.9999 -6.4239 1.1635)" class="st6" width="41.4" height="41.4"/>
			
				<rect x="82.3" y="603" transform="matrix(0.9999 -1.099505e-02 1.099505e-02 0.9999 -6.8508 1.1705)" class="st6" width="41.4" height="41.4"/>
			
				<rect x="122.6" y="563.2" transform="matrix(0.9999 -1.099505e-02 1.099505e-02 0.9999 -6.4114 1.6103)" class="st6" width="41.4" height="41.4"/>
			
				<rect x="123" y="604.6" transform="matrix(0.9999 -1.099505e-02 1.099505e-02 0.9999 -6.8663 1.6178)" class="st6" width="41.4" height="41.4"/>
			
				<rect x="62.3" y="664" transform="matrix(0.9999 -1.099505e-02 1.099505e-02 0.9999 -7.5203 1.4281)" class="st6" width="127.6" height="41.4"/>
			
				<rect x="62.2" y="699.4" transform="matrix(0.9999 -1.099505e-02 1.099505e-02 0.9999 -9.0823 1.4348)" class="st6" width="127.6" height="254.6"/>
			
				<rect x="82.8" y="643.5" transform="matrix(0.9999 -1.099505e-02 1.099505e-02 0.9999 -7.297 1.1779)" class="st6" width="41.4" height="41.4"/>
			
				<rect x="123.1" y="639.2" transform="matrix(0.9999 -1.099505e-02 1.099505e-02 0.9999 -7.2468 1.6203)" class="st6" width="41.4" height="41.4"/>
			
				<rect x="168.6" y="766.3" transform="matrix(0.9999 -1.099505e-02 1.099505e-02 0.9999 -8.6415 2.129)" class="st6" width="41.4" height="41.4"/>
			
				<rect x="172.2" y="803" transform="matrix(0.9999 -1.099505e-02 1.099505e-02 0.9999 -9.045 2.1709)" class="st6" width="41.4" height="41.4"/>
			
				<rect x="154.1" y="835.7" transform="matrix(0.9999 -1.099505e-02 1.099505e-02 0.9999 -10.4318 2.2806)" class="st6" width="96.2" height="228.4"/>
			
				<rect x="86" y="929.7" transform="matrix(0.9999 -1.099505e-02 1.099505e-02 0.9999 -10.4546 2.1362)" class="st6" width="206.2" height="44.3"/>
			
				<rect x="120.9" y="959" transform="matrix(0.9999 -1.099505e-02 1.099505e-02 0.9999 -10.7626 1.6157)" class="st6" width="41.4" height="41.4"/>
			
				<rect x="121.2" y="990.9" transform="matrix(0.9999 -1.099505e-02 1.099505e-02 0.9999 -11.1135 1.6214)" class="st6" width="41.4" height="41.4"/>
			
				<rect x="127.2" y="1015.1" transform="matrix(0.9999 -1.099505e-02 1.099505e-02 0.9999 -11.3797 1.6885)" class="st6" width="41.4" height="41.4"/>
			
				<rect x="195" y="966.2" transform="matrix(0.9999 -1.099505e-02 1.099505e-02 0.9999 -11.1415 2.9669)" class="st6" width="138.5" height="97.2"/>
			
				<rect x="295.3" y="1301.1" transform="matrix(0.9999 -1.099505e-02 1.099505e-02 0.9999 -14.5145 3.5543)" class="st6" width="41.4" height="41.4"/>
		</g>
	</g>
</g>
<g>
	
		<linearGradient id="SVGID_00000014608201838161726720000008804546620150827150_" gradientUnits="userSpaceOnUse" x1="803.7051" y1="1268.2891" x2="656.8708" y2="1013.9645">
		<stop  offset="0" style="stop-color:#FFFFFF"/>
		<stop  offset="0.9944" style="stop-color:#FFFFFF;stop-opacity:0.2"/>
	</linearGradient>
	<polygon style="fill:url(#SVGID_00000014608201838161726720000008804546620150827150_);" points="933.4,1093.2 933.4,1175.9 
		892,1175.9 892,1217.3 561,1217.3 561,1175.9 519.6,1175.9 519.6,1093.2 561,1093.2 561,1134.6 643.8,1134.6 643.8,1093.2 
		685.1,1093.2 685.1,1134.6 767.9,1134.6 767.9,1093.2 809.2,1093.2 809.2,1134.6 892,1134.6 892,1093.2 	"/>
	
		<linearGradient id="SVGID_00000014625407039487556790000006560560926008196270_" gradientUnits="userSpaceOnUse" x1="958.4003" y1="1037.3701" x2="522.7078" y2="282.7286">
		<stop  offset="0" style="stop-color:#FFFFFF"/>
		<stop  offset="0.9944" style="stop-color:#FFFFFF;stop-opacity:0.2"/>
	</linearGradient>
	<path style="fill:url(#SVGID_00000014625407039487556790000006560560926008196270_);" d="M1016.1,404.3v-39.9h-41.4v-39.9h-41.4
		v-39.9H519.6v39.9h-41.4v39.9h-41.4v39.9h-41.4V845h41.4v41.4h41.4v124.1h41.4v41.4H561v-41.4h41.4v-41.4h41.4v41.4h41.4v41.4h82.8
		v-41.4h41.4v-41.4h41.4v41.4H892v41.4h41.4v-41.4h41.4V886.3h41.4V845h41.4V404.3H1016.1z M974.7,405.7v38.5h-41.4v-38.5H974.7z
		 M933.4,404.3H892v-38.5h41.4V404.3z M809.2,325.9H892v38.5h-82.8V325.9z M519.6,763.6v-39.9h-41.4V605.4h41.4v-39.9h124.1v39.9
		h41.4v118.3h-41.4v39.9H519.6z M643.8,886.3V845h41.4V805h82.8V845h41.4v41.4H643.8z M974.7,723.7h-41.4v39.9H809.2v-39.9h-41.4
		V605.4h41.4v-39.9h124.1v39.9h41.4V723.7z M1016.1,524.1h-41.4v-78.4h41.4V524.1z"/>
</g>
</svg>
